:SAMPLES-PER-SECOND 24
:FULLY-SPECIFIED
:DEGREES
66
root  -1.542 36.2767 24.9702 176.259 43.1134 -178.089
RightUpLeg  7.2903 -10.2032 -20.5649
RightLeg  38.8688 11.8348 9.81233
RightFoot  -21.2179 1.37494 17.6051
RightToes  -1.74623e-010 0 -2.59999e-017
Spine  6.28188 2.03082 3.63093
Spine1  18.8435 2.25554 -2.51086
HEad  -22.1508 34.4491 -21.4656
LeftShoulder1  2.2597 -4.05524 -23.6558
LeftArm  10.5588 4.47429 -44.7197
LeftForeArm  31.9429 -63.6735 -19.8975
LeftHand  -0.6952 2.15948 24.7787
RightShoulder  3.24496 5.59507 29.7519
RightArm  10.5962 7.26047 40.5246
RightForeArm  144.256 61.981 158.949
RightHand  -0.00288785 -5.88479 -5.54625
LeftUpLeg  -21.03 13.2935 17.8536
LeftLeg  4.66373 45.0185 2.41246
LeftFoot  0.422528 -0.448894 4.3684
LeftToes  -6.27559e-011 -2.10356e-011 8.24929e-012
67
root  -1.45023 35.651 27.0635 175.363 46.797 -178.614
RightUpLeg  3.62847 -10.2785 -18.526
RightLeg  42.3041 12.0265 11.2295
RightFoot  -28.5209 1.76544 12.9281
RightToes  -1.74623e-010 0 -2.59999e-017
Spine  8.96049 1.05784 5.33885
Spine1  18.7736 2.72435 -5.71356
HEad  -26.1563 36.5081 -25.795
LeftShoulder1  2.35878 -4.03586 -25.1143
LeftArm  6.92343 4.32886 -42.991
LeftForeArm  32.9698 -62.9266 -19.0287
LeftHand  -0.620816 2.49028 24.6423
RightShoulder  3.26874 5.64132 29.8329
RightArm  10.0517 11.2123 41.3002
RightForeArm  140.363 63.9919 156.768
RightHand  0.0119012 -6.15418 -5.94771
LeftUpLeg  -19.7546 12.7305 20.0659
LeftLeg  1.03554 40.3402 1.31634
LeftFoot  -4.51316 -0.0389985 1.10973
LeftToes  -6.27559e-011 -2.10356e-011 8.24929e-012
68
root  -1.38998 35.4248 28.7511 174.78 48.5851 179.544
RightUpLeg  -1.21043 -10.5257 -17.1431
RightLeg  46.2357 11.0487 11.8183
RightFoot  -31.555 1.53209 9.75588
RightToes  -1.74623e-010 0 -2.59999e-017
Spine  9.38587 0.125928 4.53651
Spine1  18.9524 2.24499 -6.84386
HEad  -30.2956 38.1383 -29.828
LeftShoulder1  2.54436 -4.1609 -27.1005
LeftArm  4.23612 5.39277 -41.4513
LeftForeArm  34.6425 -62.8095 -18.7165
LeftHand  -0.572337 2.47176 22.5425
RightShoulder  3.31667 5.66802 30.2592
RightArm  9.84763 12.5795 41.1365
RightForeArm  138.96 66.0275 154.497
RightHand  0.0735704 -7.16958 -6.76148
LeftUpLeg  -21.0972 12.3665 20.1389
LeftLeg  1.9257 28.3994 0.968298
LeftFoot  -6.71893 0.196918 -3.61029
LeftToes  -6.27559e-011 -2.10356e-011 8.24929e-012
69
root  -1.24676 35.9916 29.7212 173.043 49.6373 176.613
RightUpLeg  -2.44308 -9.84677 -16.9743
RightLeg  44.4546 11.0005 11.0599
RightFoot  -30.2668 1.31539 9.10726
RightToes  -1.74623e-010 0 -2.59999e-017
Spine  8.54795 -0.138879 2.91775
Spine1  19.5334 2.12401 -7.29358
HEad  -32.5051 38.6734 -31.7641
LeftShoulder1  2.63814 -4.30819 -27.6959
LeftArm  3.5131 8.26868 -41.539
LeftForeArm  38.3207 -63.3816 -18.8179
LeftHand  -0.529929 1.98914 17.9854
RightShoulder  3.41851 5.7581 31.0177
RightArm  9.45247 9.50624 40.1594
RightForeArm  140.088 66.7819 153.752
RightHand  0.16207 -8.68862 -7.00359
LeftUpLeg  -21.3354 12.0819 18.3294
LeftLeg  5.1647 18.0168 -0.193689
LeftFoot  -2.38661 0.633284 -7.7762
LeftToes  -6.27559e-011 -2.10356e-011 8.24929e-012
70
root  -1.02304 37.3705 30.0335 170.973 51.1772 174.424
RightUpLeg  0.44898 -7.72192 -16.6768
RightLeg  36.1844 10.8356 8.19382
RightFoot  -24.1168 0.921453 9.65596
RightToes  -1.74623e-010 0 -2.59999e-017
Spine  7.51203 0.343383 2.93053
Spine1  19.7911 3.1012 -8.34992
HEad  -30.7952 39.1768 -30.6265
LeftShoulder1  2.59051 -4.34262 -26.915
LeftArm  5.2517 12.178 -42.2779
LeftForeArm  42.2333 -65.0984 -20.0934
LeftHand  -0.542817 1.24633 15.1883
RightShoulder  3.53309 5.89018 31.7253
RightArm  9.09807 3.07296 39.1039
RightForeArm  141.857 65.6008 155.288
RightHand  0.178393 -10.0028 -5.63334
LeftUpLeg  -17.7677 11.4598 16.2398
LeftLeg  7.08285 13.8702 -1.56654
LeftFoot  2.6105 1.32681 -10.9221
LeftToes  -6.27559e-011 -2.10356e-011 8.24929e-012
